<?xml version="1.0" encoding="utf-8"?>
<!-- Generator: Adobe Illustrator 25.4.1, SVG Export Plug-In . SVG Version: 6.00 Build 0)  -->
<svg version="1.1" id="레이어_1" xmlns="http://www.w3.org/2000/svg" xmlns:xlink="http://www.w3.org/1999/xlink" x="0px"
	 y="0px" width="24px" height="20px" viewBox="0 0 24 20" style="enable-background:new 0 0 24 20;" xml:space="preserve">
<style type="text/css">
	.st0{fill:#2F2725;}
</style>
<g>
	<path class="st0" d="M22.9,4.5c-0.3-1-1-1.8-2-2C19.1,2,12,2,12,2S4.9,2,3.1,2.5c-1,0.3-1.8,1-2,2C0.6,6.3,0.6,10,0.6,10
		s0,3.7,0.5,5.5c0.3,1,1,1.7,2,2C4.9,18,12,18,12,18s7.1,0,8.9-0.5c1-0.3,1.8-1,2-2c0.5-1.8,0.5-5.5,0.5-5.5S23.4,6.3,22.9,4.5
		 M9.7,13.4V6.6l5.9,3.4L9.7,13.4z"/>
</g>
</svg>
