<?xml version="1.0" encoding="utf-8"?>
<!-- Generator: Adobe Illustrator 26.5.0, SVG Export Plug-In . SVG Version: 6.00 Build 0)  -->
<svg version="1.1" id="레이어_1" xmlns="http://www.w3.org/2000/svg" xmlns:xlink="http://www.w3.org/1999/xlink" x="0px"
	 y="0px" width="20px" height="20px" viewBox="0 0 20 20" style="enable-background:new 0 0 20 20;" xml:space="preserve">
<style type="text/css">
	.st0{fill:#231815;}
</style>
<g>
	<path class="st0" d="M12.2,10.7l-1.9,1.7c-0.1,0.1-0.2,0.1-0.3,0.1s-0.2,0-0.3-0.1l-1.9-1.7l-7,6.3c0.1,0,0.1,0,0.2,0h18
		c0.1,0,0.1,0,0.2,0L12.2,10.7z"/>
	<path class="st0" d="M10,11.3L19.2,3c-0.1,0-0.1,0-0.2,0H1C0.9,3,0.9,3,0.8,3L10,11.3z"/>
	<path class="st0" d="M20,4c0-0.1,0-0.2-0.1-0.3L13,10l7,6.3c0-0.1,0.1-0.2,0.1-0.3V4z"/>
	<path class="st0" d="M0.1,3.7C0,3.8,0,3.9,0,4v12c0,0.1,0,0.2,0.1,0.3L7,10L0.1,3.7z"/>
</g>
</svg>
