<?xml version="1.0" encoding="utf-8"?>
<!-- Generator: Adobe Illustrator 25.4.1, SVG Export Plug-In . SVG Version: 6.00 Build 0)  -->
<svg version="1.1" id="레이어_1" xmlns="http://www.w3.org/2000/svg" xmlns:xlink="http://www.w3.org/1999/xlink" x="0px"
	 y="0px" width="20px" height="20px" viewBox="0 0 20 20" style="enable-background:new 0 0 20 20;" xml:space="preserve">
<style type="text/css">
	.st0{fill:#2F2725;}
</style>
<g>
	<g>
		<path class="st0" d="M15,6.1c-0.6,0-1.3-0.5-1.3-1.3c0-0.6,0.5-1.3,1.3-1.3c0.8,0.2,1.3,0.6,1.3,1.3C16.3,5.5,15.8,6.1,15,6.1
			 M10,15.1c-2.8,0-5-2.2-5-5s2.2-5,5-5s5,2.2,5,5S12.8,15.1,10,15.1 M17.5,4.4c-0.3-0.8-0.9-1.6-1.9-1.9C14.6,1.9,11.4,2,10,2
			S5.5,1.9,4.4,2.5C3.6,2.8,2.8,3.4,2.5,4.4C1.8,5.5,2,8.6,2,10s-0.2,4.6,0.5,5.7c0.3,0.8,0.9,1.6,1.9,1.9c1.1,0.4,4.3,0.3,5.6,0.3
			s4.4,0.2,5.7-0.3c0.8-0.3,1.4-0.9,1.9-1.9c0.6-1.3,0.5-4.2,0.3-5.7C17.9,8.8,18,5.6,17.5,4.4"/>
		<path class="st0" d="M10,6.7c-1.9,0-3.3,1.4-3.3,3.3s1.4,3.3,3.3,3.3s3.3-1.4,3.3-3.3S11.9,6.7,10,6.7"/>
	</g>
</g>
</svg>
