<?xml version="1.0" encoding="utf-8"?>
<!-- Generator: Adobe Illustrator 25.4.1, SVG Export Plug-In . SVG Version: 6.00 Build 0)  -->
<svg version="1.1" id="레이어_1" xmlns="http://www.w3.org/2000/svg" xmlns:xlink="http://www.w3.org/1999/xlink" x="0px"
	 y="0px" width="264.8px" height="24px" viewBox="0 0 264.8 24" style="enable-background:new 0 0 264.8 24;" xml:space="preserve">
<style type="text/css">
	.st0{fill:#2F2725;}
</style>
<g>
	<g>
		<g>
			<path class="st0" d="M34.5,21.6h-2.4c0,0,0-17.1,0-18.1c0-1.5-1.2-1.6-2.2-1.6c-0.3,0-0.3-0.9,0-1c1.3-0.4,3.7-1,4.3-1
				c0.5,0,0.3,0.9,0.3,1.7C34.5,8,34.5,21.6,34.5,21.6z"/>
			<path class="st0" d="M32.1,20.2h2.4v0.3c0,1.5,1.2,1.6,2.2,1.6c0.3,0,0.3,0.9,0,1c-1.3,0.4-3.7,1-4.3,1c-0.5,0-0.3-0.8-0.3-1.7
				C32.1,22.4,32.1,20.2,32.1,20.2z"/>
			<path class="st0" d="M34.2,12.8c-1.2-1.9-3-3.2-5.3-3.2c-3.8,0-7.3,2.8-7.3,8.2c0,3.4,2.4,6.2,5.7,6.2c2.8,0,5.4-1.6,6.6-4.3
				 M32.1,17.6c0,3.5-1.9,4.9-4,4.9c-2.3,0-4.2-2.2-4.2-5.8c0-3.7,2.2-6.2,4.6-6.2c1.8,0,3.5,1.7,3.5,4"/>
		</g>
		<g>
			<path class="st0" d="M49.8,14.3l-2.4,0.4V5.3c0,0-0.9,0-1.9,0c-0.3,0-0.2-0.8,0-1c0.9-0.7,1.6-1.3,2.1-2C48.7,1,49.1,0,49.6,0
				s0.2,0.8,0.2,1.7V14.3z"/>
			<path class="st0" d="M51,3.8c0,0,2.3,0,2.6,0c0.4,0,0.3,1.4,0,1.4s-2.6,0-2.6,0s-3,0-3.3,0s-0.4-1.4,0-1.4C48,3.8,51,3.8,51,3.8z
				"/>
			<path class="st0" d="M53.7,15.4c-0.7,0.3-1.4,0.5-2.4,0.5s-1.4-0.6-1.4-1.6l-2.4,0.4c0,1.9,0.9,3.1,3,3.1c1.3,0,2.9-0.8,3.7-1.7
				C54.3,15.9,53.9,15.2,53.7,15.4z"/>
		</g>
		<path class="st0" d="M68.3,7.2c0,4-2.7,7.2-6.7,7.2s-6.7-3.2-6.7-7.2S57.5,0,61.6,0C65.6,0,68.3,3.2,68.3,7.2z M57.3,7.2
			c0,3.6,1.8,6.2,4.3,6.2s4.3-2.7,4.3-6.2S64.1,1,61.6,1S57.3,3.6,57.3,7.2z"/>
		<g>
			<path class="st0" d="M95.2,3.9c0-1.4-0.3-2.5-2-2.5c-1.5,0-2.6,1-2.6,1.7c0,0.5,0.2,0.7,0.2,1.2c0,0.6-0.4,1.4-1.3,1.4
				c-0.6,0-1.3-0.4-1.3-1.4c0-2.2,3.9-4.4,6.5-4.4c2.3,0,2.9,1.6,2.9,3c0,1,0,7.1,0,7.1h-2.4C95.2,10.1,95.2,4.9,95.2,3.9z"/>
			<path class="st0" d="M95.2,9.6c0,1.5-1.1,2.9-2.6,2.9c-1.1,0-1.7-0.7-1.7-1.6c0-2.1,3.3-3.1,4.7-4.7l-0.4-1.6
				c0,2.3-6.7,3.1-6.7,6.9c0,2,1.3,2.9,2.5,2.9c2.2,0,4.7-1.9,5.2-3.8"/>
			<path class="st0" d="M97.6,10.1h-2.4c0,2.5,1.1,4.3,2.9,4.3c1.6,0,2.4-1.6,2.6-2.1c0.1-0.3-0.5-0.8-0.7-0.6
				c-0.3,0.3-0.6,0.7-1.4,0.7S97.6,11.6,97.6,10.1z"/>
		</g>
		<g>
			<path class="st0" d="M11.8,15.1c0-0.4,0-6.7,0-7.1c0-0.4,1.4-0.4,1.4,0c0,0.4,0,6.7,0,7.1C13.2,15.5,11.8,15.5,11.8,15.1z"/>
			<rect x="5.8" y="11" class="st0" width="7" height="1"/>
			<rect x="3.1" y="0.5" class="st0" width="2.9" height="23"/>
			<path class="st0" d="M17.8,23.4c-0.1,0.4-0.9,0.1-2.9,0.1c-4.4,0-14.4,0-14.7,0c-0.4,0-0.3-1,0-1s10.9,0,12.1,0
				c2.3,0,4.6-2.2,6.4-4.8c0.2-0.3,1,0.1,0.9,0.5S17.9,23.1,17.8,23.4z"/>
			<path class="st0" d="M16.6,0.6c-0.1-0.4-0.9-0.1-2.9-0.1c-4.4,0-13.2,0-13.5,0c-0.4,0-0.3,1,0,1s9.7,0,10.9,0
				c2.3,0,4.6,2.2,6.4,4.8c0.2,0.3,1-0.1,0.9-0.5S16.7,0.9,16.6,0.6z"/>
			<path class="st0" d="M1.7,1.4c1.4,0,1.4,0.5,1.4,1.4L3.6,1L1.7,1.4z"/>
			<path class="st0" d="M1.7,22.6c1.4,0,1.4-0.5,1.4-1.4L3.6,23L1.7,22.6z"/>
			<path class="st0" d="M7.5,22.6C6,22.6,6,22.1,6,21.1L5.5,23L7.5,22.6z"/>
			<path class="st0" d="M11.8,9.6c0,1.4-0.5,1.4-1.4,1.4l1.9,0.5L11.8,9.6z"/>
			<path class="st0" d="M11.8,13.4c0-1.4-0.5-1.4-1.4-1.4l1.9-0.5L11.8,13.4z"/>
		</g>
		<g>
			<path class="st0" d="M42.4,20.6H40V12c0-1.5-0.9-1.9-1.9-1.9c-0.3,0-0.3-0.8,0-1c1.3-0.7,3.4-1.9,4.1-1.9c0.4,0,0.3,0.8,0.3,1.7
				L42.4,20.6L42.4,20.6z"/>
			<path class="st0" d="M41.2,20.2c0,0,3,0,3.3,0c0.4,0,0.3,1,0,1s-3.3,0-3.3,0s-3,0-3.3,0s-0.4-1,0-1
				C38.2,20.2,41.2,20.2,41.2,20.2z"/>
			<circle class="st0" cx="40.5" cy="1.9" r="1.9"/>
			<path class="st0" d="M38.5,20.2c1.4,0,1.4-0.5,1.4-1.4l0.5,1.9L38.5,20.2z"/>
			<path class="st0" d="M43.8,20.2c-1.4,0-1.4-0.5-1.4-1.4l-0.5,1.9L43.8,20.2z"/>
		</g>
		<g>
			<path class="st0" d="M104.5,22.6c0,0,3,0,3.3,0c0.4,0,0.3,1,0,1s-3.3,0-3.3,0s-3,0-3.3,0s-0.4-1,0-1
				C101.4,22.6,104.5,22.6,104.5,22.6z"/>
			<path class="st0" d="M101.8,22.6c1.4,0,1.4-0.5,1.4-1.4l0.5,1.9L101.8,22.6z"/>
			<path class="st0" d="M107.1,22.6c-1.4,0-1.4-0.5-1.4-1.4l-0.5,1.9L107.1,22.6z"/>
			<path class="st0" d="M105.7,23h-2.4c0,0,0-18.6,0-19.5c0-1.5-1.2-1.6-2.2-1.6c-0.3,0-0.3-0.9,0-1c1.3-0.4,3.7-1,4.3-1
				c0.5,0,0.3,0.9,0.3,1.7C105.7,8,105.7,23,105.7,23z"/>
		</g>
		<g>
			<path class="st0" d="M85.3,20.6h-2.4V12c0-1.5-0.9-1.9-1.9-1.9c-0.3,0-0.3-0.8,0-1c1.3-0.7,3.4-1.9,4.1-1.9
				c0.4,0,0.3,0.8,0.3,1.7L85.3,20.6L85.3,20.6z"/>
			<path class="st0" d="M84.1,20.2c0,0,3,0,3.3,0c0.4,0,0.3,1,0,1s-3.3,0-3.3,0s-3,0-3.3,0s-0.4-1,0-1
				C81.1,20.2,84.1,20.2,84.1,20.2z"/>
			<circle class="st0" cx="83.4" cy="1.9" r="1.9"/>
			<path class="st0" d="M81.5,20.2c1.4,0,1.4-0.5,1.4-1.4l0.5,1.9L81.5,20.2z"/>
			<path class="st0" d="M86.8,20.2c-1.4,0-1.4-0.5-1.4-1.4l-0.5,1.9L86.8,20.2z"/>
		</g>
		<g>
			<path class="st0" d="M72.6,13c0,0,3,0,3.3,0c0.4,0,0.3,1,0,1s-3.3,0-3.3,0s-3,0-3.3,0s-0.4-1,0-1C69.6,13,72.6,13,72.6,13z"/>
			<path class="st0" d="M78.1,0c-3,0-5.8,3.8-5.8,8.4l1.4-2.6c0-1.4,0.7-3.4,2.2-3.4c1,0,1.4,0.5,2.1,0.5c0.8,0,1.4-0.6,1.4-1.4
				S78.9,0,78.1,0z"/>
			<path class="st0" d="M69.9,13c1.4,0,1.4-0.5,1.4-1.4l0.5,1.9L69.9,13z"/>
			<path class="st0" d="M75.2,13c-1.4,0-1.4-0.5-1.4-1.4l-0.5,1.9L75.2,13z"/>
			<path class="st0" d="M73.8,13.4h-2.4V4.8c0-1.5-0.9-1.9-1.9-1.9c-0.3,0-0.3-0.8,0-1c1.3-0.7,3.4-1.9,4-1.9c0.4,0,0.3,0.8,0.3,1.7
				V13.4z"/>
		</g>
	</g>
	<g>
		<g>
			<rect x="112.8" y="0.5" class="st0" width="4.3" height="23"/>
			<path class="st0" d="M130.6,12c0,6.5-4.1,11.5-11.5,11.5h-6.2v-3.8h5.3c4.9,0,7.7-3,7.7-7.7s-2.8-7.7-7.7-7.7h-5.3V0.5h6.2
				C126.4,0.5,130.6,5.5,130.6,12z"/>
		</g>
		<g>
			<rect x="148.8" y="0.5" class="st0" width="3.8" height="23"/>
			<path class="st0" d="M157.5,0c-3.7,0-6.7,3.2-6.7,7.2s3,7.2,6.7,7.2s6.7-3.2,6.7-7.2S161.2,0,157.5,0z M156.5,11
				c-2.1,0-3.8-1.7-3.8-3.8s1.7-3.8,3.8-3.8s3.8,1.7,3.8,3.8S158.6,11,156.5,11z"/>
		</g>
		<g>
			<rect x="192.4" y="10.1" class="st0" width="8.2" height="3.4"/>
			<rect x="193.9" y="5.3" class="st0" width="3.8" height="18.2"/>
		</g>
		<g>
			<rect x="256.6" y="10.1" class="st0" width="8.2" height="3.4"/>
			<rect x="258.1" y="5.3" class="st0" width="3.8" height="18.2"/>
		</g>
		<g>
			<rect x="174.9" y="10.1" class="st0" width="3.8" height="13.4"/>
			<path class="st0" d="M163.3,16.8c0,4,3,7.2,6.7,7.2s6.7-3.2,6.7-7.2s-3-7.2-6.7-7.2C166.3,9.6,163.3,12.8,163.3,16.8z
				 M167.2,16.8c0-2.1,1.7-3.8,3.8-3.8s3.8,1.7,3.8,3.8s-1.7,3.8-3.8,3.8S167.2,18.9,167.2,16.8z"/>
		</g>
		<g>
			<rect x="181" y="10.1" class="st0" width="3.8" height="13.4"/>
			<path class="st0" d="M189.6,9.6c-3.7,0-6.7,3.2-6.7,7.2h1.9c0-2.1,1.4-3.8,3.5-3.8c0.8,0,1.7,0.2,2.3,0.5V9.7
				C190.3,9.6,190,9.6,189.6,9.6z"/>
		</g>
		<g>
			<rect x="242" y="10.1" class="st0" width="3.8" height="13.4"/>
			<path class="st0" d="M245.9,16.1c0-1.7,0.9-3.1,2.6-3.1s2.6,1.4,2.6,3.1v7.4h3.8V15c0-3.4-2.2-5.4-4.9-5.4
				c-2.9,0-5.6,2.9-5.6,6.5"/>
		</g>
		<g>
			<rect x="202.2" y="10.1" class="st0" width="3.8" height="13.4"/>
			<path class="st0" d="M206,16.1c0-1.7,0.9-3.1,2.6-3.1s2.6,1.4,2.6,3.1v7.4h3.8V15c0-3.4-2.2-5.4-4.9-5.4c-2.9,0-5.6,2.9-5.6,6.5"
				/>
			<path class="st0" d="M215.2,16.1c0-1.7,0.9-3.1,2.6-3.1s2.6,1.4,2.6,3.1v7.4h3.8V15c0-3.4-2.2-5.4-4.9-5.4
				c-2.9,0-5.6,2.9-5.6,6.5"/>
		</g>
		<g>
			<rect x="135.4" y="14.9" class="st0" width="10.6" height="2.9"/>
			<path class="st0" d="M142,19.7c-0.5,0.9-1.4,1.4-2.7,1.4c-2.3,0-3.4-1.7-3.4-4.3s1-4.3,3.4-4.3s3.4,1.7,3.4,4.3
				c0,0.3,0,0.7-0.1,1h3.8c0-0.3,0.1-0.6,0.1-1c0-4.2-2.9-7.2-7.2-7.2s-7.2,3-7.2,7.2s2.9,7.2,7.2,7.2c2.6,0,4.7-1.1,6-3L142,19.7z"
				/>
		</g>
		<g>
			<rect x="229.3" y="14.9" class="st0" width="10.6" height="2.9"/>
			<path class="st0" d="M235.9,19.7c-0.5,0.9-1.4,1.4-2.7,1.4c-2.3,0-3.4-1.7-3.4-4.3s1-4.3,3.4-4.3c2.3,0,3.4,1.7,3.4,4.3
				c0,0.3,0,0.7-0.1,1h3.8c0-0.3,0.1-0.6,0.1-1c0-4.2-2.9-7.2-7.2-7.2s-7.2,3-7.2,7.2s2.9,7.2,7.2,7.2c2.6,0,4.7-1.1,6-3L235.9,19.7
				z"/>
		</g>
	</g>
</g>
</svg>
