<?xml version="1.0" encoding="utf-8"?>
<!-- Generator: Adobe Illustrator 25.4.1, SVG Export Plug-In . SVG Version: 6.00 Build 0)  -->
<svg version="1.1" id="레이어_1" xmlns="http://www.w3.org/2000/svg" xmlns:xlink="http://www.w3.org/1999/xlink" x="0px"
	 y="0px" width="20px" height="20px" viewBox="0 0 20 20" style="enable-background:new 0 0 20 20;" xml:space="preserve">
<style type="text/css">
	.st0{fill:#2F2725;}
</style>
<g>
	<g>
		<path class="st0" d="M17.5,18c-0.1,0-0.3,0-0.4-0.1L11,11.7c-1,0.8-2.2,1.3-3.5,1.3C4.5,13,2,10.5,2,7.5S4.5,2,7.5,2
			S13,4.5,13,7.5c0,1.3-0.5,2.6-1.3,3.5l6.1,6.1c0.2,0.2,0.2,0.5,0,0.7C17.8,18,17.6,18,17.5,18z M7.5,3C5,3,3,5,3,7.5S5,12,7.5,12
			S12,10,12,7.5S10,3,7.5,3z"/>
	</g>
</g>
</svg>
